<svg xmlns="http://www.w3.org/2000/svg" width="50" height="31" viewBox="0 0 50 31">
  <path style="fill-rule:nonzero;fill:rgb(68,236,68);;fill-opacity:1;stroke-width:1;stroke-linecap:butt;stroke-linejoin:miter;stroke:#000;stroke-opacity:1;stroke-miterlimit:10" d="M18.62 76.148C8.352 76.148 0 67.795 0 57.528c0-10.266 8.352-18.62 18.62-18.62 10.26 0 18.613 8.354 18.613 18.62s-8.352 18.62-18.613 18.62Zm0-33.236C10.56 42.912 4 49.466 4 57.529c0 8.055 6.56 14.616 14.62 14.616s14.612-6.56 14.612-14.616c0-8.063-6.552-14.617-14.612-14.617Zm0 0" transform="matrix(.5467 0 0 .55133 .274 -11.678)"/>
  <path style="fill-rule:nonzero;fill:rgb(68,236,68);;fill-opacity:1;stroke-width:1;stroke-linecap:butt;stroke-linejoin:miter;stroke:#000;stroke-opacity:1;stroke-miterlimit:10" d="M45.743 59.527H18.62a1.998 1.998 0 0 1-1.722-3.019l15.677-26.441a2.02 2.02 0 0 1 1.722-.978H59.99c.7 0 1.35.368 1.715.978.364.602.378 1.353.043 1.97l-14.24 26.441a2.01 2.01 0 0 1-1.766 1.049Zm-23.615-4.003H44.55l12.09-22.432H35.433ZM71.38 76.148c-10.26 0-18.613-8.353-18.613-18.62 0-10.266 8.353-18.62 18.613-18.62 10.268 0 18.62 8.354 18.62 18.62s-8.352 18.62-18.62 18.62Zm0-33.236c-8.06 0-14.612 6.554-14.612 14.617 0 8.055 6.553 14.616 14.612 14.616S86 65.585 86 57.53c0-8.063-6.56-14.617-14.62-14.617Zm0 0" transform="matrix(.5467 0 0 .55133 .274 -11.678)"/>
  <path style="fill-rule:nonzero;fill:rgb(68,236,68);;fill-opacity:1;stroke-width:1;stroke-linecap:butt;stroke-linejoin:miter;stroke:#000;stroke-opacity:1;stroke-miterlimit:10" d="M71.388 59.527c-.8 0-1.522-.475-1.844-1.205L55.168 24.958a2 2 0 0 1 1.043-2.628 1.996 1.996 0 0 1 2.63 1.048l14.376 33.357a1.98 1.98 0 0 1-.165 1.892c-.364.56-.993.9-1.664.9Zm-25.695 0c-.8 0-1.522-.475-1.836-1.205L29.474 24.958a2.007 2.007 0 0 1 1.057-2.6 2.006 2.006 0 0 1 2.622 1.02L47.53 56.735a2 2 0 0 1-.165 1.892c-.371.56-1 .9-1.672.9Zm0 0" transform="matrix(.5467 0 0 .55133 .274 -11.678)"/>
  <path style="fill-rule:nonzero;fill:rgb(68,236,68);;fill-opacity:1;stroke-width:1;stroke-linecap:butt;stroke-linejoin:miter;stroke:#000;stroke-opacity:1;stroke-miterlimit:10" d="M67.436 33.092a2.003 2.003 0 0 1 0-4.003 1.46 1.46 0 0 0 0-2.92H57.004c-1.1 0-2-.899-2-2.004 0-1.098.9-1.998 2-1.998h10.432a5.47 5.47 0 0 1 5.46 5.462 5.47 5.47 0 0 1-5.46 5.463ZM37.04 26.17H25.637c-1.1 0-2.001-.9-2.001-2.005 0-1.098.9-1.998 2-1.998H37.04a2.001 2.001 0 0 1 0 4.003Zm0 0" transform="matrix(.5467 0 0 .55133 .274 -11.678)"/>
</svg>
