<?xml version="1.0" encoding="UTF-8"?>
<svg xmlns="http://www.w3.org/2000/svg" xmlns:xlink="http://www.w3.org/1999/xlink" width="50px" height="31px" viewBox="0 0 50 31" version="1.1">
<g id="surface1">
<path style="fill-rule:nonzero;fill:rgb(92.54902%,26.666668%,26.666668%);fill-opacity:1;stroke-width:1;stroke-linecap:butt;stroke-linejoin:miter;stroke:rgb(0%,0%,0%);stroke-opacity:1;stroke-miterlimit:10;" d="M 18.619951 76.148454 C 8.352241 76.148454 -0.000544909 67.795061 -0.000544909 57.528677 C -0.000544909 47.262293 8.352241 38.9089 18.619951 38.9089 C 28.880517 38.9089 37.233303 47.262293 37.233303 57.528677 C 37.233303 67.795061 28.880517 76.148454 18.619951 76.148454 Z M 18.619951 42.91201 C 10.56012 42.91201 4.00079 49.465775 4.00079 57.528677 C 4.00079 65.584493 10.56012 72.145343 18.619951 72.145343 C 26.679783 72.145343 33.231968 65.584493 33.231968 57.528677 C 33.231968 49.465775 26.679783 42.91201 18.619951 42.91201 Z M 18.619951 42.91201 " transform="matrix(0.546693,0,0,0.551329,0.273735,-11.678171)"/>
<path style="fill-rule:nonzero;fill:rgb(92.54902%,26.666668%,26.666668%);fill-opacity:1;stroke-width:1;stroke-linecap:butt;stroke-linejoin:miter;stroke:rgb(0%,0%,0%);stroke-opacity:1;stroke-miterlimit:10;" d="M 45.743284 59.526689 L 18.619951 59.526689 C 17.898282 59.526689 17.233775 59.144091 16.876513 58.513513 C 16.526396 57.890019 16.533541 57.124823 16.897949 56.508415 L 32.574606 30.066631 C 32.939013 29.464393 33.58923 29.08888 34.296609 29.08888 L 59.990893 29.08888 C 60.691127 29.08888 61.341344 29.457308 61.705751 30.066631 C 62.070158 30.668869 62.084449 31.419895 61.748622 32.036303 L 47.508158 58.478087 C 47.158041 59.122836 46.479244 59.526689 45.743284 59.526689 Z M 22.128264 55.523579 L 44.550029 55.523579 L 56.639775 33.09199 L 35.432702 33.09199 Z M 71.380406 76.148454 C 61.119841 76.148454 52.767055 67.795061 52.767055 57.528677 C 52.767055 47.262293 61.119841 38.9089 71.380406 38.9089 C 81.648117 38.9089 90.000903 47.262293 90.000903 57.528677 C 90.000903 67.795061 81.648117 76.148454 71.380406 76.148454 Z M 71.380406 42.91201 C 63.320575 42.91201 56.76839 49.465775 56.76839 57.528677 C 56.76839 65.584493 63.320575 72.145343 71.380406 72.145343 C 79.440237 72.145343 85.999568 65.584493 85.999568 57.528677 C 85.999568 49.465775 79.440237 42.91201 71.380406 42.91201 Z M 71.380406 42.91201 " transform="matrix(0.546693,0,0,0.551329,0.273735,-11.678171)"/>
<path style="fill-rule:nonzero;fill:rgb(92.54902%,26.666668%,26.666668%);fill-opacity:1;stroke-width:1;stroke-linecap:butt;stroke-linejoin:miter;stroke:rgb(0%,0%,0%);stroke-opacity:1;stroke-miterlimit:10;" d="M 71.387552 59.526689 C 70.587285 59.526689 69.865615 59.051984 69.54408 58.322214 L 55.167856 24.958237 C 54.731996 23.94506 55.196437 22.768925 56.211061 22.329646 C 57.225685 21.890367 58.40465 22.357987 58.840509 23.378248 L 73.216733 56.73514 C 73.488252 57.351548 73.423945 58.067148 73.052393 58.626875 C 72.687985 59.186602 72.059204 59.526689 71.387552 59.526689 Z M 45.693267 59.526689 C 44.893 59.526689 44.171331 59.051984 43.85694 58.322214 L 29.473572 24.958237 C 29.059148 23.952146 29.530733 22.790181 30.531067 22.357987 C 31.538546 21.925792 32.70322 22.379242 33.15337 23.378248 L 47.529594 56.73514 C 47.793968 57.351548 47.736806 58.067148 47.365253 58.626875 C 46.993701 59.186602 46.36492 59.526689 45.693267 59.526689 Z M 45.693267 59.526689 " transform="matrix(0.546693,0,0,0.551329,0.273735,-11.678171)"/>
<path style="fill-rule:nonzero;fill:rgb(92.54902%,26.666668%,26.666668%);fill-opacity:1;stroke-width:1;stroke-linecap:butt;stroke-linejoin:miter;stroke:rgb(0%,0%,0%);stroke-opacity:1;stroke-miterlimit:10;" d="M 67.436234 33.09199 C 66.328721 33.09199 65.435566 32.192176 65.435566 31.086893 C 65.435566 29.988694 66.328721 29.08888 67.436234 29.08888 C 68.236501 29.08888 68.893863 28.437046 68.893863 27.629339 C 68.893863 26.821632 68.236501 26.169798 67.436234 26.169798 L 57.004183 26.169798 C 55.903816 26.169798 55.003515 25.269984 55.003515 24.1647 C 55.003515 23.066502 55.903816 22.166687 57.004183 22.166687 L 67.436234 22.166687 C 70.44438 22.166687 72.895197 24.61815 72.895197 27.629339 C 72.895197 30.640528 70.44438 33.09199 67.436234 33.09199 Z M 37.040381 26.169798 L 25.636577 26.169798 C 24.53621 26.169798 23.63591 25.269984 23.63591 24.1647 C 23.63591 23.066502 24.53621 22.166687 25.636577 22.166687 L 37.040381 22.166687 C 38.147893 22.166687 39.041048 23.066502 39.041048 24.1647 C 39.041048 25.269984 38.147893 26.169798 37.040381 26.169798 Z M 37.040381 26.169798 " transform="matrix(0.546693,0,0,0.551329,0.273735,-11.678171)"/>
</g>
</svg>
